<?xml version="1.0" encoding="UTF-8"?>
<svg xmlns="http://www.w3.org/2000/svg" xmlns:xlink="http://www.w3.org/1999/xlink" version="1.1" width="512" height="512" x="0" y="0" viewBox="0 0 525.664 525.663" style="enable-background:new 0 0 512 512" xml:space="preserve" class="">
  <g>
    <path d="M53.074 320.717c-18.015 0-32.679 14.662-32.679 32.679 0 18.022 14.665 32.688 32.679 32.688 18.032 0 32.689-14.665 32.689-32.688 0-18.017-14.657-32.679-32.689-32.679zm0 55.363c-12.506 0-22.688-10.167-22.688-22.685 0-12.512 10.175-22.688 22.688-22.688 12.516 0 22.7 10.176 22.7 22.688-.001 12.518-10.184 22.685-22.7 22.685zm472.59-108.97v-20.484l-20.445-89.995c0-6.235-9.05-6.235-12.496-6.235H384.716c-3.442 0-6.243.654-6.243 6.235v163.898c0 16.328 2.801 19.13 6.243 19.13h22.033c6.911-15.213 22.244-25.817 40.019-25.817 17.763 0 33.077 10.61 40.001 25.817h32.644a6.255 6.255 0 0 0 6.251-6.248v-31.51h-5.873V267.11h5.873zm-99.071-20.607h-23.617v-4.796h23.617v4.796zm-28.35-12.457V167.05h90.193l10.31 66.996H398.243zm104.798 91.046h-16.742c-4.729-9.018-15.039-15.464-15.039-15.464h31.781v15.464zm-481.194-21.45h341.646v39.136H182.431c-6.14-16.869-22.333-28.936-41.288-28.936-18.959 0-35.14 12.066-41.282 28.936h-4.046c-6.14-16.869-22.318-28.936-41.277-28.936-18.677 0-34.658 11.721-41 28.186C5.722 339.779 0 332.584 0 324.036v-1.663c0-4.235 1.457-8.082 3.814-11.219v-15.282L3.637 139.58h354.409l-.357 156.302H21.847v7.76zm423.455 17.075c-18.021 0-32.687 14.662-32.687 32.679 0 18.022 14.665 32.688 32.687 32.688s32.685-14.665 32.685-32.688c0-18.017-14.662-32.679-32.685-32.679zm0 55.363c-12.512 0-22.688-10.167-22.688-22.685 0-12.512 10.165-22.688 22.688-22.688 12.518 0 22.697 10.176 22.697 22.688.001 12.518-10.188 22.685-22.697 22.685zm-305.623-55.363c-18.02 0-32.686 14.662-32.686 32.679 0 18.022 14.666 32.688 32.686 32.688 18.026 0 32.684-14.665 32.684-32.688 0-18.017-14.657-32.679-32.684-32.679zm0 55.363c-12.506 0-22.693-10.167-22.693-22.685 0-12.512 10.181-22.688 22.693-22.688 12.511 0 22.694 10.176 22.694 22.688.001 12.518-10.183 22.685-22.694 22.685z" fill="#ffffff" opacity="1" data-original="#000000" class=""/>
  </g>
</svg>
