<?xml version="1.0" encoding="UTF-8"?>
<svg xmlns="http://www.w3.org/2000/svg" xmlns:xlink="http://www.w3.org/1999/xlink" version="1.1" width="512" height="512" x="0" y="0" viewBox="0 0 512.001 512.001" style="enable-background:new 0 0 512 512" xml:space="preserve" class="">
  <g transform="matrix(-1,-2.4492935982947064e-16,-2.4492935982947064e-16,1,512.0009765625,1.1368683772161603e-13)">
    <path d="M490.353 378.267H18.598c-6.141 0-11.119-4.978-11.119-11.119v-37.19H504.52V364.1c0 7.824-6.343 14.167-14.167 14.167z" style="" fill="#399aea" data-original="#399aea" class=""/>
    <path d="M490.353 378.267h-130.11V182.308h82.451c4.295 0 8.412 1.72 11.43 4.776l45.76 46.325a16.068 16.068 0 0 1 4.636 11.291v119.4c0 7.824-6.343 14.167-14.167 14.167z" style="" fill="#61aff6" data-original="#61aff6"/>
    <path d="m499.884 233.409-45.76-46.325a16.065 16.065 0 0 0-11.43-4.776H387.26c4.295 0 8.412 1.72 11.43 4.776l45.76 46.325a16.068 16.068 0 0 1 4.636 11.291v133.568h41.267c7.824 0 14.167-6.343 14.167-14.167V244.699c0-4.226-1.666-8.283-4.636-11.29z" style="" fill="#399aea" data-original="#399aea" class=""/>
    <path d="M387.8 279.444v-60.886a6.635 6.635 0 0 1 6.635-6.635h40.686c1.774 0 3.474.71 4.721 1.972l35.207 35.642a6.634 6.634 0 0 1 1.915 4.663v25.244a6.635 6.635 0 0 1-6.635 6.635h-75.893a6.634 6.634 0 0 1-6.636-6.635z" style="" fill="#33d8dd" data-original="#33d8dd"/>
    <circle cx="429.1" cy="373.5" r="43.546" style="" fill="#3d6687" data-original="#3d6687"/>
    <circle cx="429.1" cy="373.5" r="16.824" style="" fill="#cccbca" data-original="#cccbca"/>
    <path d="M7.479 350.599h352.764V102.894a7.944 7.944 0 0 0-7.944-7.944H15.423a7.944 7.944 0 0 0-7.944 7.944v247.705z" style="" fill="#ffc06c" data-original="#ffc06c" class=""/>
    <path d="M352.299 94.949H304.81v255.65h55.434V102.894a7.946 7.946 0 0 0-7.945-7.945z" style="" fill="#eda558" data-original="#eda558"/>
    <circle cx="94.57" cy="373.5" r="43.546" style="" fill="#3d6687" data-original="#3d6687"/>
    <circle cx="94.57" cy="373.5" r="16.824" style="" fill="#cccbca" data-original="#cccbca"/>
    <path d="M217.395 186.3H146.58a5.973 5.973 0 0 1-5.973-5.973V94.949h82.761v85.378a5.973 5.973 0 0 1-5.973 5.973z" style="" fill="#ff4c4c" data-original="#ff4c4c"/>
    <path d="M320.812 274.447a7.478 7.478 0 1 0 0-14.956h-31.977a7.478 7.478 0 1 0 0 14.956h31.977zM242.372 274.447h11.665a7.478 7.478 0 1 0 0-14.956h-11.665a7.478 7.478 0 1 0 0 14.956zM242.372 317.655h78.44a7.478 7.478 0 1 0 0-14.956h-78.44a7.478 7.478 0 1 0 0 14.956zM429.104 349.202c-13.401 0-24.303 10.902-24.303 24.303s10.902 24.303 24.303 24.303c13.4 0 24.302-10.902 24.302-24.303s-10.902-24.303-24.302-24.303zm0 33.649c-5.154 0-9.346-4.193-9.346-9.346s4.192-9.346 9.346-9.346c5.153 0 9.346 4.193 9.346 9.346 0 5.153-4.193 9.346-9.346 9.346zM94.571 349.202c-13.4 0-24.302 10.902-24.302 24.303s10.902 24.303 24.302 24.303c13.401 0 24.303-10.902 24.303-24.303s-10.902-24.303-24.303-24.303zm0 33.649c-5.153 0-9.346-4.193-9.346-9.346s4.192-9.346 9.346-9.346 9.346 4.193 9.346 9.346c0 5.153-4.192 9.346-9.346 9.346zM445.161 208.64a14.204 14.204 0 0 0-10.04-4.195h-40.686c-7.783 0-14.114 6.331-14.114 14.115v60.885c0 7.782 6.331 14.114 14.114 14.114h75.893c7.782 0 14.114-6.331 14.114-14.114v-25.244c0-3.735-1.446-7.257-4.072-9.919l-35.209-35.642zm24.324 69.961h-74.207v-59.199h39.491l34.716 35.145v24.054z" fill="#000000" opacity="1" data-original="#000000" class=""/>
    <path d="M511.999 364.069V244.7a23.404 23.404 0 0 0-6.794-16.546l-45.76-46.325a23.693 23.693 0 0 0-16.75-6.998h-74.972v-71.937c0-8.504-6.919-15.422-15.423-15.422H15.423C6.919 87.471 0 94.389 0 102.893v19.742a7.478 7.478 0 1 0 14.956 0v-19.742c0-.257.209-.465.466-.465h117.705v77.899c0 7.417 6.034 13.451 13.452 13.451h70.815c7.417 0 13.451-6.034 13.451-13.451v-77.899h121.453c.257 0 .466.208.466.465V343.12h-217.2c-7.471-10.107-18.226-16.955-30.324-19.511a48.836 48.836 0 0 0-3.653-.636c-.476-.065-.951-.13-1.43-.182a53.22 53.22 0 0 0-1.659-.146c-.365-.028-.727-.064-1.094-.083-.938-.052-1.882-.083-2.833-.083s-1.895.031-2.833.083c-.366.02-.728.056-1.093.083-.555.043-1.11.086-1.66.146-.478.052-.953.117-1.428.182a49.086 49.086 0 0 0-3.657.637c-12.097 2.557-22.851 9.404-30.321 19.51H14.957V158.033c0-4.131-3.348-7.478-7.478-7.478S0 153.902 0 158.033v209.115c0 10.255 8.343 18.598 18.598 18.598h26.444c5.499 22.241 25.614 38.784 49.53 38.784s44.032-16.543 49.531-38.784h235.471c5.499 22.241 25.615 38.784 49.531 38.784s44.032-16.543 49.53-38.784h11.719c11.917 0 21.615-9.682 21.644-21.592l.003-.055-.002-.03zm-296.11-185.248h-67.804v-76.394h67.804v76.394zM45.903 358.177a50.42 50.42 0 0 0-.813 2.879c-.045.178-.081.359-.124.538a50.996 50.996 0 0 0-.659 3.198c-.128.74-.239 1.485-.334 2.236-.034.264-.071.528-.101.793-.102.92-.184 1.846-.236 2.779-.004.063-.013.125-.016.188H18.598a3.645 3.645 0 0 1-3.641-3.641v-9.07H45.93c-.01.034-.017.067-.027.1zm84.517 19.268c-1.97 18.04-17.293 32.127-35.849 32.127-18.555 0-33.878-14.086-35.848-32.126a36.558 36.558 0 0 1-.22-3.942c0-.758.031-1.513.079-2.266.013-.204.03-.406.046-.608a36.61 36.61 0 0 1 .186-1.786c.022-.168.04-.336.064-.503.108-.75.236-1.496.391-2.236.017-.083.039-.164.057-.246a35.36 35.36 0 0 1 .644-2.514 36.58 36.58 0 0 1 .571-1.773c.045-.128.085-.259.131-.387.24-.66.505-1.311.784-1.957.106-.246.219-.488.331-.731.194-.423.398-.842.608-1.258.133-.263.264-.527.403-.786.305-.567.625-1.127.961-1.679.191-.314.394-.62.595-.927.16-.246.322-.492.487-.733.244-.354.492-.705.747-1.05.089-.12.181-.238.271-.357 5.148-6.764 12.625-11.661 21.226-13.484.083-.017.165-.039.249-.056.358-.073.721-.131 1.083-.194.348-.059.696-.119 1.047-.168a34.483 34.483 0 0 1 2.25-.244c.246-.019.491-.042.738-.056a36.343 36.343 0 0 1 2.119-.067c.71 0 1.416.027 2.119.067.247.014.492.037.738.056a36.703 36.703 0 0 1 2.25.244c.351.049.698.108 1.046.168.362.062.725.121 1.083.194.082.017.163.038.245.056 8.606 1.823 16.086 6.723 21.235 13.492.087.115.177.229.263.346.258.348.507.701.753 1.058.163.238.322.48.48.722.203.31.407.619.601.936.336.551.655 1.11.96 1.676.14.26.271.525.405.789.21.415.413.832.606 1.254.112.244.226.487.332.734.278.645.543 1.296.783 1.955.047.129.087.261.132.39a36.456 36.456 0 0 1 1.213 4.284c.018.083.04.164.057.247.155.74.283 1.486.391 2.236.024.167.042.336.064.504.077.592.138 1.187.186 1.783.016.203.034.406.046.61.047.753.079 1.507.079 2.265a36.274 36.274 0 0 1-.218 3.941zm222.345-6.656H145.524c-.003-.063-.012-.125-.016-.188a51.857 51.857 0 0 0-.236-2.779c-.03-.265-.067-.528-.101-.793a51.21 51.21 0 0 0-.334-2.236c-.047-.271-.094-.543-.146-.813a50.722 50.722 0 0 0-.513-2.385c-.043-.179-.08-.359-.124-.538a50.386 50.386 0 0 0-.813-2.878l-.028-.1h209.552v12.71zm112.187 6.658c-1.971 18.04-17.293 32.126-35.848 32.126-18.556 0-33.879-14.087-35.849-32.127a36.525 36.525 0 0 1-.22-3.941c0-19.888 16.18-36.068 36.068-36.068s36.068 16.18 36.068 36.068a36.311 36.311 0 0 1-.219 3.942zm32.09-13.347a6.696 6.696 0 0 1-6.689 6.689h-10.296a52.33 52.33 0 0 0-.174-2.258c-.008-.079-.01-.16-.018-.24a51.777 51.777 0 0 0-.32-2.513c-.036-.24-.086-.475-.126-.713-.099-.589-.197-1.179-.315-1.761-.06-.292-.133-.579-.198-.87-.116-.522-.229-1.046-.361-1.562-.08-.313-.173-.619-.259-.93-.134-.487-.266-.975-.414-1.456-.099-.32-.21-.634-.315-.951-.153-.464-.304-.929-.47-1.388-.116-.319-.243-.631-.365-.947-.173-.449-.344-.899-.53-1.341-.132-.315-.274-.624-.413-.936-.192-.434-.383-.868-.586-1.295-.148-.311-.306-.617-.461-.925-.21-.418-.419-.837-.64-1.249-.164-.306-.337-.607-.508-.909a47.506 47.506 0 0 0-.693-1.203c-.179-.299-.366-.593-.552-.888-.245-.39-.491-.78-.746-1.162-.193-.29-.393-.576-.593-.862a52.512 52.512 0 0 0-.796-1.119c-.208-.282-.422-.56-.635-.838-.278-.361-.557-.72-.844-1.073a51.824 51.824 0 0 0-.676-.811 51.13 51.13 0 0 0-.89-1.027 53.122 53.122 0 0 0-.716-.783 50.66 50.66 0 0 0-2.663-2.661 49.913 49.913 0 0 0-1.807-1.598c-.274-.231-.549-.46-.828-.686a52.462 52.462 0 0 0-3.9-2.864c-.372-.247-.75-.487-1.129-.724-.307-.192-.613-.384-.924-.57-.383-.229-.772-.45-1.162-.669-.317-.178-.633-.357-.954-.529a51.777 51.777 0 0 0-1.196-.614c-.326-.163-.65-.328-.98-.484-.406-.193-.817-.374-1.229-.556-.334-.148-.667-.298-1.005-.439-.416-.173-.838-.335-1.26-.498-.342-.132-.683-.267-1.028-.392-.428-.154-.862-.296-1.295-.439-.347-.115-.693-.234-1.043-.342-.441-.135-.887-.256-1.333-.379-.352-.097-.701-.2-1.055-.29-.454-.115-.914-.215-1.373-.318-.353-.079-.703-.165-1.058-.237-.474-.096-.954-.174-1.432-.257-.347-.06-.692-.128-1.042-.18-.505-.076-1.015-.133-1.524-.194-.33-.039-.656-.088-.988-.122-.563-.056-1.133-.092-1.701-.13-.283-.019-.564-.048-.848-.063a51.356 51.356 0 0 0-5.16 0c-.284.014-.565.044-.848.063-.569.038-1.138.073-1.701.13-.331.033-.658.082-.988.122-.509.061-1.02.118-1.524.194-.35.053-.694.121-1.042.18-.478.083-.958.161-1.432.257-.356.072-.706.158-1.059.237-.459.103-.918.202-1.372.317-.355.09-.704.193-1.056.291-.445.123-.892.244-1.332.379-.351.108-.696.227-1.043.342-.433.143-.867.285-1.295.439-.346.125-.686.26-1.028.392-.422.163-.844.324-1.26.498-.338.141-.67.291-1.004.439-.412.182-.824.364-1.23.557-.329.156-.653.32-.978.483-.402.201-.803.403-1.199.615-.32.171-.636.35-.953.528-.39.219-.778.44-1.162.669-.312.186-.619.379-.927.571-.378.237-.755.476-1.126.723-.301.2-.598.405-.894.611-.367.255-.732.513-1.092.777a55.285 55.285 0 0 0-2.742 2.162 53.116 53.116 0 0 0-1.807 1.599 50.502 50.502 0 0 0-1.731 1.683 50.66 50.66 0 0 0-.933.979 48.098 48.098 0 0 0-1.605 1.809c-.228.269-.454.538-.677.812-.287.353-.566.712-.844 1.073-.214.278-.427.556-.635.838-.271.368-.534.742-.796 1.118-.199.287-.4.572-.593.863-.255.383-.501.772-.746 1.162-.185.295-.372.589-.552.888-.238.397-.465.8-.693 1.203-.17.302-.343.603-.508.909-.221.412-.43.83-.64 1.249-.155.308-.313.614-.461.925-.203.427-.394.86-.586 1.294-.138.312-.281.622-.413.937-.185.443-.357.892-.53 1.341-.122.315-.249.628-.365.947-.167.459-.318.926-.472 1.392-.104.315-.215.628-.313.946-.149.482-.281.972-.416 1.461-.085.309-.178.615-.258.926-.132.516-.245 1.04-.361 1.562-.065.29-.138.577-.198.87-.119.582-.217 1.172-.315 1.761-.04.239-.09.474-.126.713a50.523 50.523 0 0 0-.32 2.512c-.01.099-.014.199-.023.298-.07.73-.131 1.463-.17 2.201h-10.429V189.787h74.972c2.281 0 4.508.93 6.109 2.552l45.76 46.325a8.539 8.539 0 0 1 2.478 6.035V364.1z" fill="#000000" opacity="1" data-original="#000000" class=""/>
  </g>
</svg>
